<svg width="512" height="512" viewBox="0 0 512 512" fill="none" xmlns="http://www.w3.org/2000/svg">
<mask id="path-1-inside-1_11_113" fill="white">
<path d="M219.971 452.172C174.12 441.904 133.067 416.763 103.358 380.759C73.648 344.755 56.9913 299.96 56.0428 253.513C55.0944 207.067 69.9087 161.644 98.1243 124.485C126.34 87.326 166.333 60.5699 211.727 48.482L219.713 77.765C180.938 88.0904 146.776 110.945 122.675 142.686C98.5729 174.427 85.9186 213.228 86.7288 252.902C87.539 292.576 101.767 330.84 127.145 361.594C152.523 392.349 187.589 413.823 226.755 422.595L219.971 452.172Z"/>
</mask>
<path d="M219.971 452.172C174.12 441.904 133.067 416.763 103.358 380.759C73.648 344.755 56.9913 299.96 56.0428 253.513C55.0944 207.067 69.9087 161.644 98.1243 124.485C126.34 87.326 166.333 60.5699 211.727 48.482L219.713 77.765C180.938 88.0904 146.776 110.945 122.675 142.686C98.5729 174.427 85.9186 213.228 86.7288 252.902C87.539 292.576 101.767 330.84 127.145 361.594C152.523 392.349 187.589 413.823 226.755 422.595L219.971 452.172Z" stroke="black" stroke-width="60" stroke-linejoin="round" mask="url(#path-1-inside-1_11_113)"/>
<mask id="path-2-inside-2_11_113" fill="white">
<path d="M324.28 53.4331C366.382 70.2229 401.862 100.013 425.426 138.359C448.991 176.705 459.377 221.552 455.035 266.209C450.693 310.865 431.856 352.938 401.334 386.149C370.813 419.361 330.242 441.932 285.675 450.494L279.836 420.817C317.924 413.499 352.598 394.209 378.684 365.825C404.769 337.44 420.868 301.483 424.579 263.317C428.29 225.152 419.413 186.824 399.274 154.051C379.135 121.278 348.812 95.8183 312.829 81.4689L324.28 53.4331Z"/>
</mask>
<path d="M324.28 53.4331C366.382 70.2229 401.862 100.013 425.426 138.359C448.991 176.705 459.377 221.552 455.035 266.209C450.693 310.865 431.856 352.938 401.334 386.149C370.813 419.361 330.242 441.932 285.675 450.494L279.836 420.817C317.924 413.499 352.598 394.209 378.684 365.825C404.769 337.44 420.868 301.483 424.579 263.317C428.29 225.152 419.413 186.824 399.274 154.051C379.135 121.278 348.812 95.8183 312.829 81.4689L324.28 53.4331Z" stroke="black" stroke-width="60" mask="url(#path-2-inside-2_11_113)"/>
<path d="M226 65.3171L128.838 38" stroke="black" stroke-width="30" stroke-linecap="round"/>
<path d="M226 65.3171L177 147.317" stroke="black" stroke-width="30" stroke-linecap="round"/>
<path d="M332 349.317L283 431.317" stroke="black" stroke-width="30" stroke-linecap="round"/>
<path d="M323.32 69.266L315 66" stroke="black" stroke-width="30" stroke-linecap="round"/>
<path d="M229.03 438.889L211 434" stroke="black" stroke-width="30" stroke-linecap="round"/>
<path d="M365 473.317L283 431.317" stroke="black" stroke-width="30" stroke-linecap="round"/>
</svg>
