<svg width="512" height="512" viewBox="0 0 512 512" fill="none" xmlns="http://www.w3.org/2000/svg">
<mask id="path-1-inside-1_36_9" fill="white">
<path d="M388.178 437.612C350.482 465.546 304.445 480.777 257.043 480.998C209.64 481.218 163.456 466.416 125.486 438.834L143.236 415.753C176.042 439.584 215.945 452.373 256.901 452.183C297.857 451.993 337.633 438.833 370.202 414.698L388.178 437.612Z"/>
</mask>
<path d="M388.178 437.612C350.482 465.546 304.445 480.777 257.043 480.998C209.64 481.218 163.456 466.416 125.486 438.834L143.236 415.753C176.042 439.584 215.945 452.373 256.901 452.183C297.857 451.993 337.633 438.833 370.202 414.698L388.178 437.612Z" stroke="black" stroke-width="100" mask="url(#path-1-inside-1_36_9)"/>
<path d="M388.178 437.612C350.482 465.546 304.445 480.777 257.043 480.998C209.64 481.218 163.456 466.416 125.486 438.834L143.236 415.753C176.042 439.584 215.945 452.373 256.901 452.183C297.857 451.993 337.633 438.833 370.202 414.698L388.178 437.612Z" stroke="black" stroke-width="100" mask="url(#path-1-inside-1_36_9)"/>
<path d="M388.178 437.612C350.482 465.546 304.445 480.777 257.043 480.998C209.64 481.218 163.456 466.416 125.486 438.834L143.236 415.753C176.042 439.584 215.945 452.373 256.901 452.183C297.857 451.993 337.633 438.833 370.202 414.698L388.178 437.612Z" stroke="white" stroke-width="100" mask="url(#path-1-inside-1_36_9)"/>
<mask id="path-2-inside-2_36_9" fill="white">
<path d="M144.152 87.2631C179.54 66.7049 220.2 56.3211 261.416 57.3165C302.631 58.3119 342.711 70.6458 377.004 92.8869L360.548 116.855C330.918 97.639 296.289 86.9825 260.679 86.1225C225.069 85.2625 189.938 94.2341 159.363 111.996L144.152 87.2631Z"/>
</mask>
<path d="M144.152 87.2631C179.54 66.7049 220.2 56.3211 261.416 57.3165C302.631 58.3119 342.711 70.6458 377.004 92.8869L360.548 116.855C330.918 97.639 296.289 86.9825 260.679 86.1225C225.069 85.2625 189.938 94.2341 159.363 111.996L144.152 87.2631Z" stroke="black" stroke-width="100" mask="url(#path-2-inside-2_36_9)"/>
<path d="M144.152 87.2631C179.54 66.7049 220.2 56.3211 261.416 57.3165C302.631 58.3119 342.711 70.6458 377.004 92.8869L360.548 116.855C330.918 97.639 296.289 86.9825 260.679 86.1225C225.069 85.2625 189.938 94.2341 159.363 111.996L144.152 87.2631Z" stroke="black" stroke-width="100" mask="url(#path-2-inside-2_36_9)"/>
<path d="M144.152 87.2631C179.54 66.7049 220.2 56.3211 261.416 57.3165C302.631 58.3119 342.711 70.6458 377.004 92.8869L360.548 116.855C330.918 97.639 296.289 86.9825 260.679 86.1225C225.069 85.2625 189.938 94.2341 159.363 111.996L144.152 87.2631Z" stroke="white" stroke-width="100" mask="url(#path-2-inside-2_36_9)"/>
<mask id="path-3-inside-3_36_9" fill="white">
<path d="M82.8305 397.829C51.8853 358.5 36.089 309.88 38.1845 260.41C40.28 210.941 60.1348 163.747 94.3015 127.023L116.293 146.349C86.7724 178.079 69.6179 218.854 67.8074 261.596C65.9969 304.337 79.6449 346.345 106.382 380.326L82.8305 397.829Z"/>
</mask>
<path d="M82.8305 397.829C51.8853 358.5 36.089 309.88 38.1845 260.41C40.28 210.941 60.1348 163.747 94.3015 127.023L116.293 146.349C86.7724 178.079 69.6179 218.854 67.8074 261.596C65.9969 304.337 79.6449 346.345 106.382 380.326L82.8305 397.829Z" stroke="black" stroke-width="100" mask="url(#path-3-inside-3_36_9)"/>
<path d="M82.8305 397.829C51.8853 358.5 36.089 309.88 38.1845 260.41C40.28 210.941 60.1348 163.747 94.3015 127.023L116.293 146.349C86.7724 178.079 69.6179 218.854 67.8074 261.596C65.9969 304.337 79.6449 346.345 106.382 380.326L82.8305 397.829Z" stroke="black" stroke-width="100" mask="url(#path-3-inside-3_36_9)"/>
<path d="M82.8305 397.829C51.8853 358.5 36.089 309.88 38.1845 260.41C40.28 210.941 60.1348 163.747 94.3015 127.023L116.293 146.349C86.7724 178.079 69.6179 218.854 67.8074 261.596C65.9969 304.337 79.6449 346.345 106.382 380.326L82.8305 397.829Z" stroke="white" stroke-width="100" mask="url(#path-3-inside-3_36_9)"/>
<mask id="path-4-inside-4_36_9" fill="white">
<path d="M424.268 134.421C454.783 170.427 472.219 215.214 473.871 261.834C475.523 308.455 461.298 354.301 433.403 392.262L409.307 375.537C433.413 342.732 445.705 303.113 444.278 262.825C442.851 222.537 427.783 183.833 401.413 152.717L424.268 134.421Z"/>
</mask>
<path d="M424.268 134.421C454.783 170.427 472.219 215.214 473.871 261.834C475.523 308.455 461.298 354.301 433.403 392.262L409.307 375.537C433.413 342.732 445.705 303.113 444.278 262.825C442.851 222.537 427.783 183.833 401.413 152.717L424.268 134.421Z" stroke="black" stroke-width="100" mask="url(#path-4-inside-4_36_9)"/>
<path d="M424.268 134.421C454.783 170.427 472.219 215.214 473.871 261.834C475.523 308.455 461.298 354.301 433.403 392.262L409.307 375.537C433.413 342.732 445.705 303.113 444.278 262.825C442.851 222.537 427.783 183.833 401.413 152.717L424.268 134.421Z" stroke="black" stroke-width="100" mask="url(#path-4-inside-4_36_9)"/>
<path d="M424.268 134.421C454.783 170.427 472.219 215.214 473.871 261.834C475.523 308.455 461.298 354.301 433.403 392.262L409.307 375.537C433.413 342.732 445.705 303.113 444.278 262.825C442.851 222.537 427.783 183.833 401.413 152.717L424.268 134.421Z" stroke="white" stroke-width="100" mask="url(#path-4-inside-4_36_9)"/>
<rect x="189.076" y="32" width="134.717" height="25.2511" fill="white"/>
<rect width="26.1601" height="513.928" transform="matrix(-0.737583 -0.675256 0.695962 -0.718079 86.0483 446.539)" fill="black"/>
<rect width="26.1601" height="513.928" transform="matrix(-0.737583 -0.675256 0.695962 -0.718079 86.0483 446.539)" fill="black"/>
<rect width="26.1601" height="513.928" transform="matrix(-0.737583 -0.675256 0.695962 -0.718079 86.0483 446.539)" fill="white"/>
<rect width="27.8691" height="514.621" transform="matrix(-0.749975 0.661467 -0.68247 -0.730914 449.462 429.066)" fill="black"/>
<rect width="27.8691" height="514.621" transform="matrix(-0.749975 0.661467 -0.68247 -0.730914 449.462 429.066)" fill="black"/>
<rect width="27.8691" height="514.621" transform="matrix(-0.749975 0.661467 -0.68247 -0.730914 449.462 429.066)" fill="white"/>
</svg>
