<svg width="512" height="512" viewBox="0 0 512 512" fill="none" xmlns="http://www.w3.org/2000/svg">
<path d="M38.5 175.5V460C38.5 467.2 44.5 468.333 47.5 468H189.5C195.5 468 197.667 460.333 198 456.5C198.167 395.333 198.4 271.5 198 265.5C197.6 259.5 205.833 257.333 210 257H305C313.8 257 315 262.667 314.5 265.5V456.5C314.5 467.7 321.5 468.833 325 468H466.5C472.9 468 474.167 460.333 474 456.5V173.5C473 169.5 468.333 163 464 161.5C400.333 119 271.5 32.7 263.5 27.5C258.5 24.25 253.07 24 248 27.5C184.5 71.3333 55.5 160.3 47.5 165.5C41 171 38.5 173 38.5 175.5Z" stroke="white" stroke-width="30"/>
</svg>
