<svg width="512" height="512" viewBox="0 0 512 512" fill="none" xmlns="http://www.w3.org/2000/svg">
<path d="M63.5 306L475 306" stroke="white" stroke-width="30" stroke-linecap="round"/>
<path d="M63 308.5C54.4999 345 106.5 445.5 152.5 448.5C189.557 450.917 282.833 448.167 375 448.5C431 440 474.8 358.2 474 303" stroke="white" stroke-width="30"/>
<path d="M92.7787 305.64L68.9365 291.725L49.9405 262.179L46.5348 243.344L45.1152 222.543L61 189" stroke="white" stroke-width="20"/>
<path d="M113.626 306.772L117.805 288.038L117.936 272.376L109.546 243.531L100.469 223.124L86.4144 208.18L70.4704 198.07L52 195.208" stroke="white" stroke-width="20"/>
<line x1="96.495" y1="300.107" x2="79.495" y2="248.107" stroke="white" stroke-width="20"/>
<path d="M101.591 237.626L123.591 222.126L138.591 213.126L157.063 210.694L178.591 216.626L190.591 226.626L204.591 232.251L234.591 226.626L251.091 213.126L266.091 204.626L293.591 213.126L316.591 226.626L350.091 218.126L370.591 212.126L389.591 212.126L405.591 222.126L420.091 238.627L430.591 242.127L447.591 242.127L458.091 250.626L466.591 261.126L471.591 277.626L473.091 296.627" stroke="white" stroke-width="20"/>
<path d="M191 464H347.003" stroke="white" stroke-width="30" stroke-linecap="round"/>
<path d="M395.392 29.2263C397.726 21.2777 393.175 12.9418 385.226 10.6077C377.278 8.27357 368.942 12.825 366.608 20.7737L395.392 29.2263ZM358.392 155.226L395.392 29.2263L366.608 20.7737L329.608 146.774L358.392 155.226Z" fill="white"/>
<path d="M375.744 213.542C377.209 204.416 377.434 195.361 376.407 186.893C375.38 178.425 373.121 170.711 369.759 164.191C366.396 157.67 361.996 152.472 356.81 148.891C351.624 145.311 345.753 143.42 339.533 143.324C333.312 143.229 326.865 144.933 320.557 148.337C314.25 151.741 308.206 156.78 302.772 163.166C297.338 169.552 292.619 177.16 288.885 185.554C285.152 193.949 282.476 202.967 281.011 212.093L296.774 212.334C297.751 206.245 299.536 200.228 302.028 194.627C304.519 189.026 307.667 183.95 311.293 179.689C314.919 175.428 318.951 172.066 323.16 169.795C327.368 167.523 331.67 166.387 335.821 166.45C339.971 166.514 343.888 167.776 347.348 170.165C350.809 172.553 353.744 176.022 355.988 180.373C358.232 184.723 359.739 189.87 360.424 195.52C361.109 201.17 360.959 207.212 359.982 213.301L375.744 213.542Z" fill="white"/>
<path d="M352 157L336 224" stroke="black" stroke-width="15"/>
<path d="M352 157L336 224" stroke="black" stroke-width="15"/>
<path d="M352 157L336 224" stroke="white" stroke-width="15"/>
<path d="M328 157L312 224" stroke="black" stroke-width="15"/>
<path d="M328 157L312 224" stroke="black" stroke-width="15"/>
<path d="M328 157L312 224" stroke="white" stroke-width="15"/>
</svg>
