<svg width="512" height="512" viewBox="0 0 512 512" fill="none" xmlns="http://www.w3.org/2000/svg">
<circle cx="256" cy="256" r="49" stroke="black" stroke-width="30"/>
<path d="M240.316 137.37C248.846 142.419 262.289 150.071 281.574 134.534C317.475 105.61 356.49 139.972 347.218 176.485C342.103 196.63 358.993 204.569 367.894 204.569" stroke="black" stroke-width="30" stroke-linecap="round"/>
<path d="M147.969 203.404C165.029 200.684 167.09 190.827 165.443 174.938C160.659 128.793 208.067 100.096 238.183 135.311" stroke="black" stroke-width="30" stroke-linecap="round"/>
<path d="M276.005 369.902C267.213 365.373 253.373 358.542 234.97 375.212C200.711 406.244 148.771 354.116 156.028 317.106C160.032 296.687 142.489 295.123 136.441 290.31" stroke="black" stroke-width="30" stroke-linecap="round"/>
<path d="M364.584 298.431C347.701 302.17 350.816 313.046 353.33 328.81C360.633 374.591 310.242 405.178 278.248 371.83" stroke="black" stroke-width="30" stroke-linecap="round"/>
<path d="M140.329 292.498C100.677 271.565 105.596 210.028 150.266 202.811C169.981 199.626 166.605 186.196 165.122 168.328" stroke="black" stroke-width="30" stroke-linecap="round"/>
<path d="M348.081 176.216C349.26 196.032 348.665 200.775 363.7 203.686C407.364 212.142 409.834 276.834 368.884 296.873" stroke="black" stroke-width="30" stroke-linecap="round"/>
</svg>
