<svg width="512" height="512" viewBox="0 0 512 512" fill="none" xmlns="http://www.w3.org/2000/svg">
<path d="M42.9977 342H469.002" stroke="black" stroke-width="30" stroke-linecap="round"/>
<path d="M188 471H319" stroke="black" stroke-width="30" stroke-linecap="round"/>
<path d="M41.9999 359.5C42 377 40.9 403 76.5 403C112.1 403 334.5 403 438 403C454 403 469.462 396 469.062 354" stroke="black" stroke-width="30"/>
<path d="M469.07 128.5C469.07 111 470.17 85 434.57 85C398.97 85 176.57 85 73.0696 85C57.0696 85 41.6076 92 42.0076 134" stroke="black" stroke-width="30"/>
<path d="M219.5 471.004V408.996" stroke="black" stroke-width="30" stroke-linecap="round"/>
<path d="M42 366L42 134" stroke="black" stroke-width="30" stroke-linecap="round"/>
<path d="M469 354L469 122" stroke="black" stroke-width="30" stroke-linecap="round"/>
<path d="M288 471.008V409" stroke="black" stroke-width="30" stroke-linecap="round"/>
<rect x="309" y="161" width="60" height="60" fill="black"/>
<rect x="309" y="161" width="60" height="60" fill="black"/>
<rect x="309" y="161" width="60" height="60" fill="black"/>
<rect x="309" y="161" width="60" height="60" fill="black"/>
<rect x="379" y="161" width="60" height="60" fill="black"/>
<rect x="379" y="161" width="60" height="60" fill="black"/>
<rect x="379" y="161" width="60" height="60" fill="black"/>
<rect x="379" y="161" width="60" height="60" fill="black"/>
<rect x="379" y="161" width="60" height="60" fill="black"/>
<rect x="379" y="161" width="60" height="60" fill="black"/>
<rect x="379" y="161" width="60" height="60" fill="black"/>
<rect x="379" y="161" width="60" height="60" fill="black"/>
<rect x="379" y="234" width="60" height="60" fill="black"/>
<rect x="379" y="234" width="60" height="60" fill="black"/>
<rect x="379" y="234" width="60" height="60" fill="black"/>
<rect x="379" y="234" width="60" height="60" fill="black"/>
<rect x="310" y="234" width="60" height="60" fill="black"/>
<rect x="310" y="234" width="60" height="60" fill="black"/>
<rect x="310" y="234" width="60" height="60" fill="black"/>
<rect x="310" y="234" width="60" height="60" fill="black"/>
</svg>
